<svg xmlns="http://www.w3.org/2000/svg" viewBox="0 0 300 350" width="300" height="350">
  <!-- Location Pin -->
  <path d="M150 40 C100 40 60 80 60 130 C60 180 150 250 150 250 S240 180 240 130 C240 80 200 40 150 40 Z" fill="#E74C3C" stroke="#D83A2B" stroke-width="2"/>
  
  <!-- Inner circle for buildings -->
  <circle cx="150" cy="120" r="50" fill="white"/>
  
  <!-- Blue building (left) -->
  <rect x="110" y="100" width="22" height="35" fill="#3498DB"/>
  <rect x="115" y="106" width="5" height="5" fill="white"/>
  <rect x="124" y="106" width="5" height="5" fill="white"/>
  <rect x="115" y="116" width="5" height="5" fill="white"/>
  
  <!-- Green building (center) -->
  <rect x="138" y="85" width="28" height="50" fill="#27AE60"/>
  <rect x="143" y="91" width="5" height="5" fill="white"/>
  <rect x="156" y="91" width="5" height="5" fill="white"/>
  <rect x="143" y="102" width="5" height="5" fill="white"/>
  <rect x="156" y="102" width="5" height="5" fill="white"/>
  <rect x="143" y="113" width="5" height="5" fill="white"/>
  <rect x="156" y="113" width="5" height="5" fill="white"/>
  
  <!-- Yellow/Orange building (right) -->
  <rect x="172" y="105" width="22" height="30" fill="#F39C12"/>
  <rect x="177" y="111" width="5" height="5" fill="white"/>
  <rect x="186" y="111" width="5" height="5" fill="white"/>
  
  <!-- TownRanker Text -->
  <text x="150" y="310" font-family="Arial, sans-serif" font-size="48" font-weight="bold" text-anchor="middle" fill="#2C3E50">TownRanker</text>
</svg>